<mxfile host="app.diagrams.net" modified="2023-12-21T07:51:11.754Z" agent="Mozilla/5.0 (Windows NT 10.0; Win64; x64) AppleWebKit/537.36 (KHTML, like Gecko) Chrome/120.0.0.0 Safari/537.36" etag="Y5qTACBPOQPcexVw2gr7" version="22.1.11" type="device">
  <diagram name="Page-1" id="rBdhUl1RhIgAzziBrIAZ">
    <mxGraphModel dx="1613" dy="744" grid="1" gridSize="10" guides="1" tooltips="1" connect="1" arrows="1" fold="1" page="1" pageScale="1" pageWidth="850" pageHeight="1100" math="0" shadow="0">
      <root>
        <mxCell id="0" />
        <mxCell id="1" parent="0" />
        <mxCell id="8z31JSvjo7bLuy03v7kU-1" value="" style="swimlane;startSize=0;" vertex="1" parent="1">
          <mxGeometry x="280" y="60" width="390" height="640" as="geometry" />
        </mxCell>
        <mxCell id="8z31JSvjo7bLuy03v7kU-2" value="hotel prediction system" style="text;html=1;align=center;verticalAlign=middle;resizable=0;points=[];autosize=1;strokeColor=none;fillColor=none;" vertex="1" parent="8z31JSvjo7bLuy03v7kU-1">
          <mxGeometry x="5" y="8" width="150" height="30" as="geometry" />
        </mxCell>
        <mxCell id="8z31JSvjo7bLuy03v7kU-5" value="Customer Login" style="ellipse;whiteSpace=wrap;html=1;" vertex="1" parent="8z31JSvjo7bLuy03v7kU-1">
          <mxGeometry x="145" y="38" width="120" height="60" as="geometry" />
        </mxCell>
        <mxCell id="8z31JSvjo7bLuy03v7kU-10" value="Cancel Bookings" style="ellipse;whiteSpace=wrap;html=1;" vertex="1" parent="8z31JSvjo7bLuy03v7kU-1">
          <mxGeometry x="145" y="320" width="120" height="60" as="geometry" />
        </mxCell>
        <mxCell id="8z31JSvjo7bLuy03v7kU-9" value="Logout" style="ellipse;whiteSpace=wrap;html=1;" vertex="1" parent="8z31JSvjo7bLuy03v7kU-1">
          <mxGeometry x="145" y="470" width="120" height="60" as="geometry" />
        </mxCell>
        <mxCell id="8z31JSvjo7bLuy03v7kU-8" value="Book Rooms" style="ellipse;whiteSpace=wrap;html=1;" vertex="1" parent="8z31JSvjo7bLuy03v7kU-1">
          <mxGeometry x="145" y="250" width="120" height="60" as="geometry" />
        </mxCell>
        <mxCell id="8z31JSvjo7bLuy03v7kU-7" value="View Rooms" style="ellipse;whiteSpace=wrap;html=1;" vertex="1" parent="8z31JSvjo7bLuy03v7kU-1">
          <mxGeometry x="145" y="180" width="120" height="60" as="geometry" />
        </mxCell>
        <mxCell id="8z31JSvjo7bLuy03v7kU-6" value="Customer Register" style="ellipse;whiteSpace=wrap;html=1;" vertex="1" parent="8z31JSvjo7bLuy03v7kU-1">
          <mxGeometry x="145" y="110" width="120" height="60" as="geometry" />
        </mxCell>
        <mxCell id="8z31JSvjo7bLuy03v7kU-18" value="View Bookings&lt;br&gt;" style="ellipse;whiteSpace=wrap;html=1;" vertex="1" parent="8z31JSvjo7bLuy03v7kU-1">
          <mxGeometry x="145" y="390" width="120" height="60" as="geometry" />
        </mxCell>
        <mxCell id="8z31JSvjo7bLuy03v7kU-24" value="Predict Cancellation" style="ellipse;whiteSpace=wrap;html=1;" vertex="1" parent="8z31JSvjo7bLuy03v7kU-1">
          <mxGeometry x="145" y="550" width="120" height="60" as="geometry" />
        </mxCell>
        <mxCell id="8z31JSvjo7bLuy03v7kU-3" value="Customer" style="shape=umlActor;verticalLabelPosition=bottom;verticalAlign=top;html=1;outlineConnect=0;" vertex="1" parent="1">
          <mxGeometry x="140" y="130" width="30" height="60" as="geometry" />
        </mxCell>
        <mxCell id="8z31JSvjo7bLuy03v7kU-4" value="Employee" style="shape=umlActor;verticalLabelPosition=bottom;verticalAlign=top;html=1;outlineConnect=0;" vertex="1" parent="1">
          <mxGeometry x="140" y="480" width="30" height="60" as="geometry" />
        </mxCell>
        <mxCell id="8z31JSvjo7bLuy03v7kU-11" value="" style="endArrow=none;html=1;rounded=0;entryX=0;entryY=0.5;entryDx=0;entryDy=0;exitX=0.5;exitY=0.5;exitDx=0;exitDy=0;exitPerimeter=0;" edge="1" parent="1" source="8z31JSvjo7bLuy03v7kU-3" target="8z31JSvjo7bLuy03v7kU-5">
          <mxGeometry width="50" height="50" relative="1" as="geometry">
            <mxPoint x="200" y="190" as="sourcePoint" />
            <mxPoint x="250" y="140" as="targetPoint" />
          </mxGeometry>
        </mxCell>
        <mxCell id="8z31JSvjo7bLuy03v7kU-12" value="" style="endArrow=none;html=1;rounded=0;entryX=0;entryY=0.5;entryDx=0;entryDy=0;exitX=0.5;exitY=0.5;exitDx=0;exitDy=0;exitPerimeter=0;" edge="1" parent="1" source="8z31JSvjo7bLuy03v7kU-3" target="8z31JSvjo7bLuy03v7kU-6">
          <mxGeometry width="50" height="50" relative="1" as="geometry">
            <mxPoint x="160" y="160" as="sourcePoint" />
            <mxPoint x="330" y="180" as="targetPoint" />
          </mxGeometry>
        </mxCell>
        <mxCell id="8z31JSvjo7bLuy03v7kU-13" value="" style="endArrow=none;html=1;rounded=0;entryX=0;entryY=0.5;entryDx=0;entryDy=0;exitX=0.5;exitY=0.5;exitDx=0;exitDy=0;exitPerimeter=0;" edge="1" parent="1" source="8z31JSvjo7bLuy03v7kU-3" target="8z31JSvjo7bLuy03v7kU-7">
          <mxGeometry width="50" height="50" relative="1" as="geometry">
            <mxPoint x="170" y="290" as="sourcePoint" />
            <mxPoint x="220" y="240" as="targetPoint" />
          </mxGeometry>
        </mxCell>
        <mxCell id="8z31JSvjo7bLuy03v7kU-14" value="" style="endArrow=none;html=1;rounded=0;entryX=0;entryY=0.5;entryDx=0;entryDy=0;exitX=0.5;exitY=0.5;exitDx=0;exitDy=0;exitPerimeter=0;" edge="1" parent="1" source="8z31JSvjo7bLuy03v7kU-3" target="8z31JSvjo7bLuy03v7kU-8">
          <mxGeometry width="50" height="50" relative="1" as="geometry">
            <mxPoint x="190" y="300" as="sourcePoint" />
            <mxPoint x="240" y="250" as="targetPoint" />
          </mxGeometry>
        </mxCell>
        <mxCell id="8z31JSvjo7bLuy03v7kU-15" value="" style="endArrow=none;html=1;rounded=0;entryX=0;entryY=0.5;entryDx=0;entryDy=0;exitX=0.5;exitY=0.5;exitDx=0;exitDy=0;exitPerimeter=0;" edge="1" parent="1" source="8z31JSvjo7bLuy03v7kU-3" target="8z31JSvjo7bLuy03v7kU-10">
          <mxGeometry width="50" height="50" relative="1" as="geometry">
            <mxPoint x="190" y="320" as="sourcePoint" />
            <mxPoint x="240" y="270" as="targetPoint" />
          </mxGeometry>
        </mxCell>
        <mxCell id="8z31JSvjo7bLuy03v7kU-16" value="" style="endArrow=none;html=1;rounded=0;entryX=0;entryY=0.5;entryDx=0;entryDy=0;exitX=0.5;exitY=0.5;exitDx=0;exitDy=0;exitPerimeter=0;" edge="1" parent="1" source="8z31JSvjo7bLuy03v7kU-3" target="8z31JSvjo7bLuy03v7kU-9">
          <mxGeometry width="50" height="50" relative="1" as="geometry">
            <mxPoint x="90" y="310" as="sourcePoint" />
            <mxPoint x="140" y="260" as="targetPoint" />
          </mxGeometry>
        </mxCell>
        <mxCell id="8z31JSvjo7bLuy03v7kU-19" value="" style="endArrow=none;html=1;rounded=0;entryX=0;entryY=0.5;entryDx=0;entryDy=0;exitX=0.5;exitY=0.5;exitDx=0;exitDy=0;exitPerimeter=0;" edge="1" parent="1" source="8z31JSvjo7bLuy03v7kU-3" target="8z31JSvjo7bLuy03v7kU-18">
          <mxGeometry width="50" height="50" relative="1" as="geometry">
            <mxPoint x="60" y="290" as="sourcePoint" />
            <mxPoint x="110" y="240" as="targetPoint" />
          </mxGeometry>
        </mxCell>
        <mxCell id="8z31JSvjo7bLuy03v7kU-22" value="" style="endArrow=none;html=1;rounded=0;exitX=0.5;exitY=0.5;exitDx=0;exitDy=0;exitPerimeter=0;entryX=0;entryY=0.5;entryDx=0;entryDy=0;" edge="1" parent="1" source="8z31JSvjo7bLuy03v7kU-4" target="8z31JSvjo7bLuy03v7kU-18">
          <mxGeometry width="50" height="50" relative="1" as="geometry">
            <mxPoint x="190" y="510" as="sourcePoint" />
            <mxPoint x="240" y="460" as="targetPoint" />
          </mxGeometry>
        </mxCell>
        <mxCell id="8z31JSvjo7bLuy03v7kU-23" value="" style="endArrow=none;html=1;rounded=0;entryX=0;entryY=0.5;entryDx=0;entryDy=0;exitX=0.5;exitY=0.5;exitDx=0;exitDy=0;exitPerimeter=0;" edge="1" parent="1" source="8z31JSvjo7bLuy03v7kU-4" target="8z31JSvjo7bLuy03v7kU-9">
          <mxGeometry width="50" height="50" relative="1" as="geometry">
            <mxPoint x="190" y="610" as="sourcePoint" />
            <mxPoint x="240" y="560" as="targetPoint" />
          </mxGeometry>
        </mxCell>
        <mxCell id="8z31JSvjo7bLuy03v7kU-25" value="" style="endArrow=none;html=1;rounded=0;entryX=0;entryY=0.5;entryDx=0;entryDy=0;" edge="1" parent="1" target="8z31JSvjo7bLuy03v7kU-24">
          <mxGeometry width="50" height="50" relative="1" as="geometry">
            <mxPoint x="155" y="510" as="sourcePoint" />
            <mxPoint x="280" y="610" as="targetPoint" />
          </mxGeometry>
        </mxCell>
      </root>
    </mxGraphModel>
  </diagram>
</mxfile>
